<mxGraphModel><root><mxCell id="0"/><mxCell id="1" parent="0"/><mxCell id="2" value="Login Screen" style="ellipse;aspect=fixed;strokeWidth=2;whiteSpace=wrap;" vertex="1" parent="1"><mxGeometry x="8" y="104" width="106" height="106" as="geometry"/></mxCell><mxCell id="3" value="Raumliste" style="rhombus;strokeWidth=2;whiteSpace=wrap;" vertex="1" parent="1"><mxGeometry x="243" y="97" width="120" height="120" as="geometry"/></mxCell><mxCell id="4" value="Raum erstellen" style="ellipse;aspect=fixed;strokeWidth=2;whiteSpace=wrap;" vertex="1" parent="1"><mxGeometry x="531" y="8" width="123" height="123" as="geometry"/></mxCell><mxCell id="5" value="Raum beitreten" style="ellipse;aspect=fixed;strokeWidth=2;whiteSpace=wrap;" vertex="1" parent="1"><mxGeometry x="529" y="181" width="127" height="127" as="geometry"/></mxCell><mxCell id="6" value="Spiel starten" style="ellipse;aspect=fixed;strokeWidth=2;whiteSpace=wrap;" vertex="1" parent="1"><mxGeometry x="706" y="104" width="106" height="106" as="geometry"/></mxCell><mxCell id="7" value="Eingeloggt" style="curved=1;startArrow=none;endArrow=block;exitX=1;exitY=0.5;entryX=0;entryY=0.5;" edge="1" parent="1" source="2" target="3"><mxGeometry relative="1" as="geometry"><Array as="points"/></mxGeometry></mxCell><mxCell id="8" value="Raum erstellen" style="curved=1;startArrow=none;endArrow=block;exitX=1;exitY=0.2;entryX=0;entryY=0.5;" edge="1" parent="1" source="3" target="4"><mxGeometry relative="1" as="geometry"><Array as="points"><mxPoint x="446" y="70"/></Array></mxGeometry></mxCell><mxCell id="9" value="Raum beitreten" style="curved=1;startArrow=none;endArrow=block;exitX=1;exitY=0.81;entryX=0;entryY=0.5;" edge="1" parent="1" source="3" target="5"><mxGeometry relative="1" as="geometry"><Array as="points"><mxPoint x="446" y="245"/></Array></mxGeometry></mxCell><mxCell id="10" value="" style="curved=1;startArrow=none;endArrow=block;exitX=1;exitY=0.5;entryX=0.06;entryY=0;" edge="1" parent="1" source="4" target="6"><mxGeometry relative="1" as="geometry"><Array as="points"><mxPoint x="681" y="70"/></Array></mxGeometry></mxCell><mxCell id="11" value="" style="curved=1;startArrow=none;endArrow=block;exitX=1;exitY=0.5;entryX=0.06;entryY=1;" edge="1" parent="1" source="5" target="6"><mxGeometry relative="1" as="geometry"><Array as="points"><mxPoint x="681" y="245"/></Array></mxGeometry></mxCell></root></mxGraphModel>